<svg width="42" height="50" viewBox="0 0 42 50" fill="none" xmlns="http://www.w3.org/2000/svg">
<path d="M13.597 50.0012C6.15547 49.9583 0 34.7677 0 27.0314C0 14.3943 9.47998 11.6277 13.1335 11.6277C14.78 11.6277 16.5381 12.2743 18.0888 12.8465C19.1731 13.2456 20.2946 13.6576 20.9184 13.6576C21.2917 13.6576 22.1715 13.3071 22.9482 12.9996C24.6048 12.3401 26.6661 11.5205 29.0665 11.5205C29.0708 11.5205 29.0766 11.5205 29.0808 11.5205C30.8731 11.5205 36.3077 11.9139 39.575 16.8205L40.3403 17.9706L39.2389 18.8018C37.6653 19.9891 34.7942 22.1549 34.7942 26.445C34.7942 31.5262 38.0458 33.4803 39.6079 34.4201C40.2975 34.835 41.0112 35.2627 41.0112 36.1982C41.0112 36.8091 36.136 49.9254 29.0564 49.9254C27.3241 49.9254 26.0996 49.4047 25.0195 48.9455C23.9267 48.4806 22.9839 48.0801 21.4261 48.0801C20.6364 48.0801 19.6379 48.4534 18.5808 48.8497C17.1361 49.3889 15.501 50.0012 13.6456 50.0012H13.597Z" fill="#BBBDC7"/>
<path d="M29.8165 0C30.0009 6.64805 25.2465 11.2602 20.4977 10.9709C19.7152 5.66553 25.2459 0 29.8165 0Z" fill="#BBBDC7"/>
</svg>
