<svg width="196" height="60" viewBox="0 0 196 60" fill="none" xmlns="http://www.w3.org/2000/svg">
<g clip-path="url(#clip0)">
<path d="M15 14C6.71573 14 0 20.7157 0 29C0 37.2844 6.71573 44.0001 15 44.0001C23.2844 44.0001 30.0001 37.2844 30.0001 29C30.0001 20.7157 23.2843 14 15 14ZM15 40.2501C8.78687 40.2501 3.75003 35.2132 3.75003 29C3.75003 22.7869 8.78687 17.75 15 17.75C21.2132 17.75 26.2501 22.7869 26.2501 29C26.2501 35.2132 21.2132 40.2501 15 40.2501Z" fill="#1B2364"/>
</g>
<path d="M59.56 37.8H47.4L45.16 44H41.32L51.4 16.28H55.6L65.64 44H61.8L59.56 37.8ZM58.52 34.84L53.48 20.76L48.44 34.84H58.52ZM73.6731 26.12C74.3931 24.8667 75.4598 23.8267 76.8731 23C78.3131 22.1467 79.9798 21.72 81.8731 21.72C83.8198 21.72 85.5798 22.1867 87.1531 23.12C88.7531 24.0533 90.0065 25.3733 90.9131 27.08C91.8198 28.76 92.2731 30.72 92.2731 32.96C92.2731 35.1733 91.8198 37.1467 90.9131 38.88C90.0065 40.6133 88.7531 41.96 87.1531 42.92C85.5798 43.88 83.8198 44.36 81.8731 44.36C80.0065 44.36 78.3531 43.9467 76.9131 43.12C75.4998 42.2667 74.4198 41.2133 73.6731 39.96V54.4H70.0331V22.08H73.6731V26.12ZM88.5531 32.96C88.5531 31.3067 88.2198 29.8667 87.5531 28.64C86.8865 27.4133 85.9798 26.48 84.8331 25.84C83.7131 25.2 82.4731 24.88 81.1131 24.88C79.7798 24.88 78.5398 25.2133 77.3931 25.88C76.2731 26.52 75.3665 27.4667 74.6731 28.72C74.0065 29.9467 73.6731 31.3733 73.6731 33C73.6731 34.6533 74.0065 36.1067 74.6731 37.36C75.3665 38.5867 76.2731 39.5333 77.3931 40.2C78.5398 40.84 79.7798 41.16 81.1131 41.16C82.4731 41.16 83.7131 40.84 84.8331 40.2C85.9798 39.5333 86.8865 38.5867 87.5531 37.36C88.2198 36.1067 88.5531 34.64 88.5531 32.96ZM100.704 26.12C101.424 24.8667 102.491 23.8267 103.904 23C105.344 22.1467 107.011 21.72 108.904 21.72C110.851 21.72 112.611 22.1867 114.184 23.12C115.784 24.0533 117.038 25.3733 117.944 27.08C118.851 28.76 119.304 30.72 119.304 32.96C119.304 35.1733 118.851 37.1467 117.944 38.88C117.038 40.6133 115.784 41.96 114.184 42.92C112.611 43.88 110.851 44.36 108.904 44.36C107.038 44.36 105.384 43.9467 103.944 43.12C102.531 42.2667 101.451 41.2133 100.704 39.96V54.4H97.0644V22.08H100.704V26.12ZM115.584 32.96C115.584 31.3067 115.251 29.8667 114.584 28.64C113.918 27.4133 113.011 26.48 111.864 25.84C110.744 25.2 109.504 24.88 108.144 24.88C106.811 24.88 105.571 25.2133 104.424 25.88C103.304 26.52 102.398 27.4667 101.704 28.72C101.038 29.9467 100.704 31.3733 100.704 33C100.704 34.6533 101.038 36.1067 101.704 37.36C102.398 38.5867 103.304 39.5333 104.424 40.2C105.571 40.84 106.811 41.16 108.144 41.16C109.504 41.16 110.744 40.84 111.864 40.2C113.011 39.5333 113.918 38.5867 114.584 37.36C115.251 36.1067 115.584 34.64 115.584 32.96ZM144.096 32.2C144.096 32.8933 144.056 33.6267 143.976 34.4H126.456C126.589 36.56 127.322 38.2533 128.656 39.48C130.016 40.68 131.656 41.28 133.576 41.28C135.149 41.28 136.456 40.92 137.496 40.2C138.562 39.4533 139.309 38.4667 139.736 37.24H143.656C143.069 39.3467 141.896 41.0667 140.136 42.4C138.376 43.7067 136.189 44.36 133.576 44.36C131.496 44.36 129.629 43.8933 127.976 42.96C126.349 42.0267 125.069 40.7067 124.136 39C123.202 37.2667 122.736 35.2667 122.736 33C122.736 30.7333 123.189 28.7467 124.096 27.04C125.002 25.3333 126.269 24.0267 127.896 23.12C129.549 22.1867 131.442 21.72 133.576 21.72C135.656 21.72 137.496 22.1733 139.096 23.08C140.696 23.9867 141.922 25.24 142.776 26.84C143.656 28.4133 144.096 30.2 144.096 32.2ZM140.336 31.44C140.336 30.0533 140.029 28.8667 139.416 27.88C138.802 26.8667 137.962 26.1067 136.896 25.6C135.856 25.0667 134.696 24.8 133.416 24.8C131.576 24.8 130.002 25.3867 128.696 26.56C127.416 27.7333 126.682 29.36 126.496 31.44H140.336ZM152.54 25.64C153.18 24.3867 154.087 23.4133 155.26 22.72C156.46 22.0267 157.914 21.68 159.62 21.68V25.44H158.66C154.58 25.44 152.54 27.6533 152.54 32.08V44H148.9V22.08H152.54V25.64ZM167.462 14.4V44H163.822V14.4H167.462ZM193.666 32.2C193.666 32.8933 193.626 33.6267 193.546 34.4H176.026C176.159 36.56 176.893 38.2533 178.226 39.48C179.586 40.68 181.226 41.28 183.146 41.28C184.719 41.28 186.026 40.92 187.066 40.2C188.133 39.4533 188.879 38.4667 189.306 37.24H193.226C192.639 39.3467 191.466 41.0667 189.706 42.4C187.946 43.7067 185.759 44.36 183.146 44.36C181.066 44.36 179.199 43.8933 177.546 42.96C175.919 42.0267 174.639 40.7067 173.706 39C172.773 37.2667 172.306 35.2667 172.306 33C172.306 30.7333 172.759 28.7467 173.666 27.04C174.573 25.3333 175.839 24.0267 177.466 23.12C179.119 22.1867 181.013 21.72 183.146 21.72C185.226 21.72 187.066 22.1733 188.666 23.08C190.266 23.9867 191.493 25.24 192.346 26.84C193.226 28.4133 193.666 30.2 193.666 32.2ZM189.906 31.44C189.906 30.0533 189.599 28.8667 188.986 27.88C188.373 26.8667 187.533 26.1067 186.466 25.6C185.426 25.0667 184.266 24.8 182.986 24.8C181.146 24.8 179.573 25.3867 178.266 26.56C176.986 27.7333 176.253 29.36 176.066 31.44H189.906Z" fill="#0D155B"/>
<defs>
<clipPath id="clip0">
<rect width="30" height="30" fill="white" transform="translate(0 14)"/>
</clipPath>
</defs>
</svg>
