<svg width="54" height="49" viewBox="0 0 54 49" fill="none" xmlns="http://www.w3.org/2000/svg">
<g clip-path="url(#clip0)">
<path d="M4.00905 1.80469C3.3684 2.57143 3.01174 3.51463 3.01174 4.524V44.4756C3.01174 45.4132 3.32051 46.2939 3.8782 47.0297L27.8813 24.3555L4.00905 1.80469Z" fill="#BBBDC7"/>
<path d="M30.079 22.2791L37.866 14.9234L10.494 0.611632C9.30603 -0.0096906 7.94298 -0.156984 6.67117 0.166762L30.079 22.2791Z" fill="#BBBDC7"/>
<path d="M30.079 26.4316L6.43462 48.7671C6.94442 48.9223 7.47197 49.0004 7.99994 49.0004C8.85648 49.0004 9.71344 48.7963 10.494 48.388L38.0629 33.9731L30.079 26.4316Z" fill="#BBBDC7"/>
<path d="M48.6981 20.5867L40.6957 16.4023L32.2771 24.3543L40.8921 32.4928L48.6981 28.4112C50.2601 27.5948 51.1926 26.1319 51.1926 24.499C51.1926 22.8657 50.2601 21.4032 48.6981 20.5867Z" fill="#BBBDC7"/>
</g>
<defs>
<clipPath id="clip0">
<rect width="54" height="49" fill="white"/>
</clipPath>
</defs>
</svg>
