<svg width="40" height="40" viewBox="0 0 40 40" fill="none" xmlns="http://www.w3.org/2000/svg">
<g clip-path="url(#clip0)">
<path d="M39.3816 3.97339C38.893 3.37585 38.1612 3.04688 37.3207 3.04688C36.8639 3.04688 36.3799 3.14301 35.8824 3.33313L2.02319 16.2582C0.22632 16.944 -0.0156843 17.973 -0.000120326 18.5254C0.0154436 19.0778 0.315431 20.0916 2.14832 20.6747C2.1593 20.6781 2.17029 20.6815 2.18128 20.6845L9.20459 22.6944L13.0028 33.5556C13.5207 35.0363 14.6831 35.9561 16.0369 35.9561C16.8904 35.9561 17.73 35.5984 18.4648 34.9222L22.809 30.9222L29.11 35.9958C29.1106 35.9964 29.1115 35.9967 29.1121 35.9973L29.1719 36.0455C29.1774 36.0498 29.1832 36.0544 29.1887 36.0587C29.8891 36.6019 30.6536 36.8887 31.4003 36.889H31.4006C32.8597 36.889 34.0215 35.809 34.3599 34.1379L39.9077 6.74408C40.1305 5.64453 39.9437 4.66064 39.3816 3.97339ZM11.5541 22.3126L25.1042 15.3903L16.6671 24.3555C16.5288 24.5023 16.4308 24.682 16.3826 24.8776L14.7557 31.4676L11.5541 22.3126ZM16.877 33.1979C16.8209 33.2495 16.7644 33.2956 16.7079 33.338L18.2173 27.2247L20.963 29.4357L16.877 33.1979ZM37.6107 6.27869L32.0629 33.6728C32.0095 33.9349 31.8389 34.545 31.4003 34.545C31.1837 34.545 30.9114 34.4269 30.6328 34.2123L23.4929 28.4634C23.492 28.4625 23.4908 28.4616 23.4896 28.461L19.2412 25.04L31.4424 12.0752C31.8331 11.6602 31.8685 11.0245 31.5264 10.5685C31.184 10.1126 30.5635 9.96918 30.056 10.2286L9.98828 20.4807L2.86945 18.4439L36.7183 5.52277C37.0043 5.41351 37.2039 5.39062 37.3207 5.39062C37.3925 5.39062 37.52 5.39917 37.5673 5.45746C37.6296 5.53345 37.7089 5.79254 37.6107 6.27869Z" fill="#9BA0A2"/>
</g>
<defs>
<clipPath id="clip0">
<rect width="40" height="40" fill="white"/>
</clipPath>
</defs>
</svg>
